<svg width="48" height="48" viewBox="0 0 48 48" fill="none" xmlns="http://www.w3.org/2000/svg">
<g id="Bot">
<path id="Vector" d="M17.9425 17.5068C15.2507 17.5068 13.0622 19.6954 13.0622 22.3871V24.7987H10.0239V32.0907H13.0622V37.5596H34.938V32.0907H37.9763V24.7987H34.938V22.3871C34.938 19.6954 32.7494 17.5068 30.0577 17.5068C22.1844 17.5068 26.2987 17.5068 17.9425 17.5068ZM17.9425 18.7222H30.0577C32.0777 18.7222 33.7226 20.3671 33.7226 22.3871V36.3443H30.0767V31.483H17.9235V36.3443H14.2775V22.3871C14.2775 20.3671 15.9225 18.7222 17.9425 18.7222ZM20.0503 22.3681C18.543 22.3681 17.3158 23.5953 17.3158 25.1026C17.3158 26.6099 18.543 27.837 20.0503 27.837C21.5576 27.837 22.7848 26.6099 22.7848 25.1026C22.7848 23.5953 21.5576 22.3681 20.0503 22.3681ZM27.9499 22.3681C26.4426 22.3681 25.2154 23.5953 25.2154 25.1026C25.2154 26.6099 26.4426 27.837 27.9499 27.837C29.4572 27.837 30.6843 26.6099 30.6843 25.1026C30.6843 23.5953 29.4572 22.3681 27.9499 22.3681ZM20.0503 23.5834C20.8882 23.5834 21.5695 24.2647 21.5695 25.1026C21.5695 25.9405 20.8882 26.6217 20.0503 26.6217C19.2124 26.6217 18.5312 25.9405 18.5312 25.1026C18.5312 24.2647 19.2124 23.5834 20.0503 23.5834ZM27.9499 23.5834C28.7878 23.5834 29.469 24.2647 29.469 25.1026C29.469 25.9405 28.7878 26.6217 27.9499 26.6217C27.112 26.6217 26.4307 25.9405 26.4307 25.1026C26.4307 24.2647 27.112 23.5834 27.9499 23.5834ZM11.2392 26.0141H13.0622V30.8753H11.2392V26.0141ZM34.938 26.0141H36.7609V30.8753H34.938V26.0141ZM19.1388 32.6983H21.5695V36.3443H19.1388V32.6983ZM22.7848 32.6983H25.2154V36.3443H22.7848V32.6983ZM26.4307 32.6983H28.8614V36.3443H26.4307V32.6983Z" fill="#483D44"/>
<path id="Ellipse 14" d="M34.767 11.8484C34.767 11.8833 34.7235 12.0961 34.1794 12.4177C33.6773 12.7145 32.9089 13.0035 31.9046 13.2546C29.9055 13.7544 27.1105 14.0702 24.0001 14.0702C20.8896 14.0702 18.0946 13.7544 16.0955 13.2546C15.0912 13.0035 14.3228 12.7145 13.8207 12.4177C13.2766 12.0961 13.2331 11.8833 13.2331 11.8484C13.2331 11.8135 13.2766 11.6007 13.8207 11.2791C14.3228 10.9823 15.0912 10.6933 16.0955 10.4422C18.0946 9.94244 20.8896 9.62665 24.0001 9.62665C27.1105 9.62665 29.9055 9.94244 31.9046 10.4422C32.9089 10.6933 33.6773 10.9823 34.1794 11.2791C34.7235 11.6007 34.767 11.8135 34.767 11.8484Z" stroke="#483D44" stroke-width="1.2533"/>
</g>
</svg>
